<svg width="64" height="97" viewBox="0 0 64 97" fill="none" xmlns="http://www.w3.org/2000/svg">
<g clip-path="url(#clip0_988_60)">
<path d="M32.356 30.5117C30.5727 30.719 29.2128 32.1673 29.0863 33.9938C29.0318 34.7805 29.0488 34.8338 30.8328 39.4243C34.891 49.8678 35.8743 52.3813 36.0395 52.735C36.4403 53.5918 37.0035 54.3975 37.7075 55.121C38.2475 55.676 38.6038 55.9745 39.206 56.377C40.265 57.0842 40.7903 57.2795 44.9105 58.4995C48.9238 59.688 51.1165 60.4778 53.0057 61.4155C55.4535 62.6305 57.1615 64.0123 58.2417 65.652C59.0167 66.8285 59.7033 68.9382 60.0018 71.062C60.1188 71.8922 60.1193 73.7273 60.0033 74.4778C59.7513 76.1068 59.248 77.4717 58.478 78.614C58.0685 79.2215 58.211 79.1197 58.8063 78.3792C60.4913 76.2845 62.2075 72.7042 63.0833 69.4575C64.1432 65.528 64.2875 61.3085 63.4983 57.315C61.9615 49.538 57.0517 42.8262 50.1372 39.05C49.7027 38.8125 48.048 37.945 45.8045 36.7788C45.4603 36.5997 45.1164 36.4202 44.7728 36.2403C44.546 36.121 44.0818 35.8785 43.7413 35.7018C43.4008 35.5248 42.4208 35.0143 41.5635 34.567L39.4315 33.4555C38.7359 33.093 38.0406 32.7299 37.3455 32.3662C35.1223 31.2025 34.1812 30.732 33.913 30.6505C33.6317 30.5647 32.917 30.455 32.7378 30.4697C32.6998 30.4727 32.5282 30.4917 32.356 30.5117Z" fill="url(#paint0_radial_988_60)"/>
<path d="M37.2025 69.4985C37.0792 69.5715 36.9065 69.677 36.8182 69.733C36.7297 69.7893 36.534 69.911 36.3825 70.0038C35.2815 70.6808 34.1812 71.3589 33.0815 72.038C32.4083 72.4533 31.7358 72.8697 31.064 73.2872C30.767 73.472 30.469 73.6552 30.17 73.8367C30.0565 73.9045 29.5718 74.203 29.0925 74.5003C28.4742 74.8834 27.8553 75.2656 27.2358 75.6468C26.5169 76.0888 25.7985 76.5318 25.0808 76.9758C24.4548 77.3631 23.8283 77.7495 23.2013 78.135C22.8103 78.3748 22.4493 78.6062 22.3988 78.6495C22.3238 78.7137 18.8475 80.867 17.1033 81.9298C15.7783 82.7368 14.2457 83.2765 12.677 83.4885C11.9467 83.5873 10.5645 83.5875 9.83625 83.4893C7.86125 83.2225 6.04225 82.486 4.484 81.3227C3.873 80.8662 2.72225 79.7165 2.2825 79.1228C1.24575 77.7233 0.57525 76.2223 0.228 74.5238C0.148 74.1328 0.0725 73.8028 0.06 73.79C0.0275 73.7575 0.08625 74.3478 0.192 75.1198C0.302 75.9225 0.53625 77.0838 0.78875 78.077C2.74225 85.7628 8.30125 92.0143 15.8262 94.9885C17.9932 95.8445 20.18 96.384 22.5593 96.6485C23.4533 96.7485 25.984 96.7885 26.9168 96.7175C31.196 96.3935 34.9218 95.134 38.7438 92.7185C39.0843 92.5035 39.7237 92.1 40.165 91.8223C40.5785 91.562 40.9912 91.3003 41.403 91.0372C41.6425 90.8835 41.9315 90.702 42.0447 90.6338C42.2143 90.5303 42.3825 90.4246 42.5493 90.3168C42.7133 90.2108 43.4145 89.7668 44.108 89.3308L46.881 87.5792L47.8332 86.9778L47.8675 86.9563L47.9725 86.89L48.0222 86.8585L48.7233 86.4158L51.1457 84.8855C54.2327 82.9457 55.1532 82.2648 56.5872 80.86C57.1852 80.2745 58.0865 79.275 58.1312 79.148C58.1405 79.122 58.3008 78.875 58.4873 78.5987C59.2463 77.4757 59.7522 76.1 60.0032 74.4778C60.1195 73.7273 60.1187 71.8922 60.002 71.062C59.7762 69.457 59.2632 67.6365 58.7102 66.4773C57.8035 64.5765 55.872 62.8493 53.097 61.4582C52.3307 61.074 51.5395 60.7225 51.4512 60.7273C51.4092 60.7295 48.827 62.3078 45.7127 64.2348C42.5985 66.1623 39.8957 67.8347 39.7065 67.9522C39.5172 68.0697 39.1925 68.268 38.9845 68.3933L37.2025 69.4985Z" fill="url(#paint1_radial_988_60)"/>
<path d="M0.01325 60.2533L0.02675 73.6755L0.2005 74.455C0.7435 76.8918 1.68475 78.6488 3.321 80.2805C4.0905 81.048 4.679 81.511 5.513 82.0045C7.278 83.0488 9.17725 83.564 11.2575 83.5633C13.4365 83.562 15.3215 83.0185 17.2638 81.8313C17.5915 81.631 18.876 80.8403 20.1178 80.074L22.3757 78.681V46.831L22.3752 32.2628C22.3747 22.9685 22.3578 17.4488 22.3283 17.0158C22.1433 14.2945 21.005 11.7928 19.0912 9.90055C18.504 9.3198 18.0022 8.93179 16.5072 7.90304C15.4984 7.20867 14.4897 6.51401 13.4812 5.81904L7.15425 1.45879C5.7095 0.462544 5.5965 0.393544 5.15975 0.237294C4.59175 0.0340444 3.98975 -0.0407056 3.4175 0.0210444C1.7495 0.201044 0.41425 1.40554 0.06725 3.04279C0.01325 3.29779 0.00325 6.68779 0.0025 25.0875L0.00175 46.8313H0L0.01325 60.2533Z" fill="url(#paint2_linear_988_60)"/>
</g>
<defs>
<radialGradient id="paint0_radial_988_60" cx="0" cy="0" r="1" gradientUnits="userSpaceOnUse" gradientTransform="translate(715.434 -3589.67) rotate(-140.294) scale(4255.1 5872.7)">
<stop stop-color="#00CACC"/>
<stop offset="1" stop-color="#048FCE"/>
</radialGradient>
<radialGradient id="paint1_radial_988_60" cx="0" cy="0" r="1" gradientUnits="userSpaceOnUse" gradientTransform="translate(1082.75 2093.24) rotate(-35.5312) scale(6107.18 4787.22)">
<stop stop-color="#00BBEC"/>
<stop offset="1" stop-color="#2756A9"/>
</radialGradient>
<linearGradient id="paint2_linear_988_60" x1="1118.79" y1="0" x2="1118.79" y2="8356.33" gradientUnits="userSpaceOnUse">
<stop stop-color="#00BBEC"/>
<stop offset="1" stop-color="#2756A9"/>
</linearGradient>
<clipPath id="clip0_988_60">
<rect width="64" height="97" fill="white"/>
</clipPath>
</defs>
</svg>
