<svg width="64" height="21" viewBox="0 0 64 21" fill="none" xmlns="http://www.w3.org/2000/svg">
<g clip-path="url(#clip0_986_50)">
<path d="M62.0065 12.834L63.782 14.0176C63.2057 14.8664 61.8275 16.3226 59.4446 16.3226C56.4856 16.3226 54.282 14.0333 54.282 11.1209C54.282 8.02175 56.509 5.91925 59.1955 5.91925C61.8975 5.91925 63.2212 8.06838 63.6496 9.22863L63.8832 9.8205L56.9217 12.7016C57.4512 13.7451 58.2767 14.2746 59.4446 14.2746C60.6127 14.2746 61.4225 13.6984 62.0065 12.834ZM56.548 10.9575L61.1967 9.02625C60.9397 8.38 60.1767 7.92063 59.2655 7.92063C58.1054 7.92063 56.4935 8.9485 56.548 10.9575Z" fill="#FF302F"/>
<path d="M50.9259 0.616375H53.1684V15.8476H50.9259V0.616375Z" fill="#20B15A"/>
<path d="M47.3906 6.32412H49.5554V15.575C49.5554 19.4139 47.2894 20.9946 44.6106 20.9946C42.0877 20.9946 40.5694 19.2971 40.0009 17.9189L41.9865 17.0934C42.3446 17.9421 43.209 18.9467 44.6106 18.9467C46.3315 18.9467 47.3906 17.8799 47.3906 15.8865V15.139H47.3127C46.7987 15.7619 45.8176 16.3225 44.5717 16.3225C41.9709 16.3225 39.588 14.0565 39.588 11.1365C39.588 8.20075 41.9709 5.9115 44.5717 5.9115C45.8099 5.9115 46.7987 6.46437 47.3127 7.07175H47.3906V6.32412ZM47.5462 11.1365C47.5462 9.29875 46.3237 7.95937 44.7664 7.95937C43.1934 7.95937 41.8696 9.29875 41.8696 11.1365C41.8696 12.9507 43.1934 14.2667 44.7664 14.2667C46.3239 14.2746 47.5464 12.9507 47.5464 11.1365" fill="#3686F7"/>
<path d="M27.277 11.0975C27.277 14.0955 24.941 16.2991 22.0754 16.2991C19.2099 16.2991 16.8737 14.0878 16.8737 11.0975C16.8737 8.084 19.2099 5.88813 22.0754 5.88813C24.941 5.88813 27.277 8.084 27.277 11.0975ZM25.0032 11.0975C25.0032 9.22875 23.6482 7.94375 22.0754 7.94375C20.5025 7.94375 19.1475 9.22875 19.1475 11.0975C19.1475 12.9508 20.5025 14.2513 22.0754 14.2513C23.6484 14.2513 25.0032 12.9508 25.0032 11.0975Z" fill="#FF302F"/>
<path d="M38.6381 11.1209C38.6381 14.1189 36.302 16.3225 33.4365 16.3225C30.5709 16.3225 28.2349 14.1188 28.2349 11.1209C28.2349 8.10738 30.5709 5.91925 33.4365 5.91925C36.302 5.91925 38.6381 8.09963 38.6381 11.1209ZM36.3565 11.1209C36.3565 9.25213 35.0016 7.96713 33.4286 7.96713C31.8556 7.96713 30.5008 9.25213 30.5008 11.1209C30.5008 12.9741 31.8558 14.2746 33.4286 14.2746C35.0094 14.2746 36.3565 12.9664 36.3565 11.1209Z" fill="#FFBA40"/>
<path d="M8.32375 14.041C5.061 14.041 2.507 11.409 2.507 8.14625C2.507 4.88362 5.061 2.25162 8.32375 2.25162C10.0836 2.25162 11.3684 2.94462 12.3184 3.83237L13.8836 2.26725C12.5599 0.998 10.7923 0.0322495 8.32375 0.0322495C3.85413 0.0323745 0.0930023 3.67675 0.0930023 8.14625C0.0930023 12.6157 3.85413 16.2603 8.32375 16.2603C10.7378 16.2603 12.5599 15.466 13.9849 13.9865C15.4488 12.5225 15.9004 10.4667 15.9004 8.80037C15.9004 8.27862 15.8381 7.74137 15.768 7.34425H8.32375V9.509H13.6266C13.4709 10.864 13.0426 11.7906 12.4119 12.4212C11.6488 13.1922 10.4419 14.041 8.32375 14.041Z" fill="#3686F7"/>
</g>
<defs>
<clipPath id="clip0_986_50">
<rect width="64" height="21" fill="white"/>
</clipPath>
</defs>
</svg>
