<svg width="512" height="143" viewBox="0 0 512 143" fill="none" xmlns="http://www.w3.org/2000/svg">
<g clip-path="url(#clip0_988_78)">
<path d="M0 34.607H30.475L48.165 79.931L66.115 34.607H95.815L51.135 142.043H21.306L33.574 113.634L0 34.607ZM126.676 32.799C103.82 32.799 89.358 53.331 89.358 73.733C89.358 96.718 105.241 114.926 126.289 114.926C142.043 114.926 147.983 105.37 147.983 105.37V112.86H174.583V34.607H147.983V41.709C147.853 41.709 141.268 32.799 126.676 32.799ZM132.358 57.979C142.947 57.979 148.37 66.373 148.37 73.862C148.37 81.997 142.56 90.004 132.358 90.004C123.965 90.004 116.346 83.16 116.346 74.25C116.346 65.21 122.416 57.979 132.358 57.979ZM183.623 112.86V0H211.386V41.967C211.386 41.967 217.971 32.799 231.788 32.799C248.704 32.799 258.648 45.454 258.648 63.403V112.86H231.013V70.118C231.013 64.048 228.173 58.108 221.587 58.108C214.872 58.108 211.386 64.048 211.386 70.118V112.86H183.623ZM306.038 32.8C279.824 32.8 264.2 52.686 264.2 74.122C264.2 98.398 283.053 115.056 306.167 115.056C328.507 115.056 348.005 99.173 348.005 74.509C348.005 47.521 327.473 32.8 306.038 32.8ZM306.296 58.11C315.593 58.11 321.921 65.857 321.921 73.992C321.921 80.965 315.981 89.617 306.296 89.617C297.386 89.617 290.801 82.515 290.801 73.863C290.801 65.728 296.224 58.11 306.296 58.11ZM394.234 32.799C368.02 32.799 352.395 52.685 352.395 74.121C352.395 98.397 371.248 115.055 394.363 115.055C416.703 115.055 436.201 99.172 436.201 74.508C436.201 47.52 415.798 32.799 394.234 32.799ZM394.492 58.109C403.789 58.109 410.117 65.856 410.117 73.991C410.117 80.964 404.177 89.616 394.492 89.616C385.582 89.616 378.996 82.514 378.996 73.862C378.996 65.727 384.549 58.109 394.492 58.109ZM458.152 77.606C468.354 77.606 476.618 85.87 476.618 96.072C476.618 106.272 468.354 114.537 458.153 114.537C447.952 114.537 439.687 106.273 439.687 96.072C439.687 85.871 447.952 77.606 458.153 77.606M482.689 70.891H449.5L478.943 0H512L482.689 70.891Z" fill="#5F01D1"/>
</g>
<defs>
<clipPath id="clip0_988_78">
<rect width="512" height="143" fill="white"/>
</clipPath>
</defs>
</svg>
